<svg xmlns="http://www.w3.org/2000/svg" viewBox="-20 0 552.7 112.88" width="200" height="160"><defs><style>.a{fill:#09478d;}.b{fill:none;stroke:#000;stroke-miterlimit:10;stroke-width:2px;}.c{fill:#e20613;}.d{fill:#121414;}.e{fill:#fff;}</style></defs><path d="M106.77,179.76,96.62,213.81q-2,7-4.74,10t-8.12,3.58a65.33,65.33,0,0,1-15.36-.94l2.49-10a55.87,55.87,0,0,0,7.89,0c1.69-.18,2.72-.81,3.08-1.9l.27-1.08H79.36a6.55,6.55,0,0,1-4.74-1.62A10.4,10.4,0,0,1,72,207.11l-8.39-27.35h15L84,202.44c.09.49.45.74,1.08.74h.61l6.09-23.42Z" transform="translate(-63.65 -158.22)"/><path d="M111.86,226.47V179.76q6.9-.67,19.76-.68,11.17,0,15.27,3.32T151,195q0,9.13-3.79,12.46t-13.54,3.31a60.92,60.92,0,0,1-7.1-.4v16.11Zm14.69-26.06h4.73c2,0,3.32-.37,4-1.09s1-2.16,1-4.33-.33-3.69-1-4.43-2-1.12-4-1.12h-4.73Z" transform="translate(-63.65 -158.22)"/><path d="M179.13,216.38H166.34L164,226.47H149l12.12-42.92a5.08,5.08,0,0,1,1.82-2.74,5,5,0,0,1,3.12-1.05H179.4a5,5,0,0,1,3.12,1.05,5.15,5.15,0,0,1,1.83,2.74l12.11,42.92h-15Zm-2.37-10.29-2.3-10c-.4-2.12-.68-3.9-.81-5.34h-1.83q-.4,3.18-.81,5.34l-2.3,10Z" transform="translate(-63.65 -158.22)"/><path d="M244.12,179.76v46.71H229.43v-37.1h-2.84q-3.39,0-3.59,3.11-1.22,16.19-3.25,22.89-2.24,7.71-7,10.22c-3.21,1.67-5.35,2.07-10.17,1.22l-3.49-11.38a33.67,33.67,0,0,0,3.54-.47,5.53,5.53,0,0,0,2.1-1.12,5.12,5.12,0,0,0,1.59-2.4q1.83-5.41,2.84-20,.75-11.72,12.32-11.71Z" transform="translate(-63.65 -158.22)"/><path class="a" d="M324.62,213.67l1.81,1.51A26.89,26.89,0,0,1,306,229.63l-.31-2.27A24.53,24.53,0,0,0,324.62,213.67Z" transform="translate(-63.65 -158.22)"/><path class="a" d="M277.8,234.68a40.12,40.12,0,0,0,51.1,0,41.28,41.28,0,0,0,5.37-5.37,42.91,42.91,0,0,0,3.29-4.6l0-.08-1.84-1.57-.07.11a39.35,39.35,0,0,1-3.27,4.61,37.72,37.72,0,0,1-53.09,5l1.39-1.68,4.56-5.51A28.33,28.33,0,0,0,321.4,182l6-7.25,1.53-1.85h0l0,0,.31-.37,2.34-2.83.46-.57a45.16,45.16,0,0,1,14.9,46.1,44.16,44.16,0,0,1-3,8.16,1,1,0,0,1-.07.15c-.08.15-.15.3-.22.44h0c-.5.93-1.5,2.79-2.24,4-.48.79-1,1.61-1.65,2.44a3.77,3.77,0,0,0,4.6,0L381,260.94l-8.41,10.16-37-30.84a3.54,3.54,0,0,0,.22-.6,3.8,3.8,0,0,0-.94-3.58c-.64.63-1.27,1.22-1.88,1.72l-.17.15c-.78.63-1.6,1.26-2.34,1.8-.55.41-1.06.78-1.48,1.07h0l-.55.37-.32.22-.19.13,0,0a45.19,45.19,0,0,1-53.33-3l0-.06,2.85-3.44,0,0Z" transform="translate(-63.65 -158.22)"/><path d="M319.16,183.09a25.78,25.78,0,0,0-9.28-4.55,26.07,26.07,0,0,0-31.7,18.74,26.35,26.35,0,0,0,6,24.26l2.07,2,.47.38,13-15.73-.57-.64a5.59,5.59,0,0,1,7-8.57l.78.54L320,183.73l-.07-.06Zm-35.05,11.37a20.73,20.73,0,0,1,6-7.35,2.67,2.67,0,0,1,4.09,1.15l2.26,5.65c.4,1-.05,2-1.16,3.48s-2.24,2.17-3.3,2l-6-1.13A2.67,2.67,0,0,1,284.11,194.46Zm9.17,15.23-4,4.81a2.66,2.66,0,0,1-4.31-.3,20.53,20.53,0,0,1-2.86-9,2.68,2.68,0,0,1,3.17-2.81l5.94,1.13c1.07.2,1.84,1,2.31,2.82S293.91,208.94,293.28,209.69Zm17.83-21.26-4.06,4.84c-.63.75-1.59,1-3.32.78-2-.28-3-.73-3.41-1.75l-2.27-5.68a2.66,2.66,0,0,1,2.13-3.64,20.48,20.48,0,0,1,9.87,1.25A2.67,2.67,0,0,1,311.11,188.43ZM325.81,165l-.06-.26-1.06-.61-.44-.24-1.05-.52c-.39-.19-.77-.38-1.17-.56l-.71-.31-1.39-.58a41,41,0,0,1,1.94,5.79l.09.36-.32-.17c-.65-.34-1.32-.67-2-1l-.06,0,0-.07a41.9,41.9,0,0,0-2.3-5.76l0-.12-.2-.06c-.73-.23-1.48-.45-2.23-.65l-.06,0h0q-1.08-.28-2.16-.51l-.09,0c-.49-.1-1-.19-1.46-.27l.71,1c.28.45.55.91.82,1.36.57,1,1.05,1.85,1.47,2.71l.16.33-.36-.1c-.67-.2-1.37-.36-2-.52l-.16,0,0-.06c-.52-1-1.1-1.87-1.59-2.62s-1.05-1.54-1.8-2.51l-.3,0c-.49-.05-1-.08-1.47-.11l-.81-.06-1.08,0-1.18,0h-.67l-.89,0a39.48,39.48,0,0,1,3.85,4.27l.24.3-.38,0c-.5-.06-1-.07-1.5-.08l-.71,0h-.07l0,0a40.1,40.1,0,0,0-4.25-4.19l-.22,0c-.62.07-1.24.14-1.86.23-1.42.21-2.82.49-4.2.83.77.49,1.43.93,2,1.37s1.58,1.18,2.44,1.9l.28.23-.36.05c-.61.09-1.23.2-1.84.31l-.41.07-.05,0c-.95-.69-1.75-1.25-2.53-1.74s-1.46-.9-2.33-1.37a46.47,46.47,0,0,0-5.93,2.33,42.49,42.49,0,0,1,4.92,2.21l.31.16-.33.13-.58.22a15.61,15.61,0,0,0-1.47.6l-.07,0-.07,0c-1.1-.51-2-.89-2.83-1.19s-1.65-.59-2.4-.82a45.52,45.52,0,0,0-5.32,3.49c.67.1,1.38.22,2.1.38,1.17.24,2.13.48,3,.74l.35.11-.31.18c-.53.31-1,.66-1.53,1l-.38.26h-.06a40.4,40.4,0,0,0-5.39-.86c-.27.23-.53.45-.79.69l-1.91,1.84c-.15.15-.3.29-.44.44l-.42.43-.86,1-.07.09,0,0c.71,0,1.38-.06,2-.07,1.24,0,2.19.05,3.09.11l.36,0-.25.25c-.55.54-1.09,1.09-1.56,1.58l-.05.05h-.07c-1.19,0-2.16,0-3.06.06-.69,0-1.46.11-2.27.2-.07.09-.15.18-.22.28-.21.28-.42.57-.62.86s-.44.61-.65.92l.09-.13-1.43,2.23-.66,1.12,0,0a40.43,40.43,0,0,1,4.92-1l.35-.05-.19.29-.39.58c-.27.42-.56.85-.8,1.29l0,.06-.07,0a39.54,39.54,0,0,0-5.1,1.34,45.54,45.54,0,0,0-2.34,5.92c.51-.25,1.06-.52,1.69-.8.84-.39,1.78-.77,2.87-1.16l.34-.12-.55,1.36-.39,1.11-.06,0c-.47.2-.94.4-1.41.62l-1.37.68-1.39.74-.5.3a45,45,0,0,0-1.1,6.3c1.34-1.07,2.76-2,4-2.85l.31-.19-.39,2.62-.06,0c-.78.51-1.47,1.07-2.21,1.65l-.5.42c-.46.38-.93.77-1.38,1.17a45.53,45.53,0,0,0,.22,6.41l.18-.22c.34-.41.71-.82,1.05-1.2.57-.62,1.32-1.44,2.13-2.22l.26-.25V205l.09,1.38.06.83v.07l-.05.06c-.74.76-1.4,1.56-2,2.31L260,210c-.38.48-.76,1-1.12,1.46a47,47,0,0,0,1.54,6.24c.06-.1.1-.2.15-.3.26-.49.54-1,.78-1.39.58-1,1.08-1.81,1.63-2.62l.2-.29.09.35c.11.45.24.89.37,1.34.08.26.16.52.23.79l0,.07,0,.06a30.27,30.27,0,0,0-1.48,2.68l-.17.35c-.27.55-.55,1.12-.8,1.68a44.66,44.66,0,0,0,2.81,5.83c0-.14.07-.29.1-.43.12-.43.27-.88.41-1.3l.07-.21c.26-.81.62-1.86,1-2.9L266,221l.16.32c.2.41.42.81.63,1.21l.4.75,0,.07,0,.07c-.37,1-.63,1.93-.9,2.92l-.08.33c-.16.64-.33,1.3-.47,2a43.76,43.76,0,0,0,4,5.15,47.87,47.87,0,0,1,.6-5.19l.06-.35,1.69,2v.07a29.32,29.32,0,0,0-.27,3v.23c0,.77-.07,1.57-.06,2.35.52.51,1.05,1,1.59,1.51s.86.76,1.31,1.12l0,0,2.85-3.45.27-.33,1.57-1.9,1.39-1.67,4.56-5.51A28.34,28.34,0,0,1,321.41,182l6-7.25,1.53-1.85h0l-2.08-1.64Zm2.4,1.24h0l.76,6.61.31-.37,2.34-2.83.45-.55h0A43.92,43.92,0,0,0,328.21,166.23Z" transform="translate(-63.65 -158.22)"/><path class="b" d="M274.6,237.21a44.06,44.06,0,1,1,56.32-67.78" transform="translate(-63.65 -158.22)"/><path class="c" d="M319.19,183.1l.75.58.07.06-13.09,15.81-.78-.54a5.59,5.59,0,0,0-7,8.57l.58.64-13,15.73-.47-.38-2.07-2a26.35,26.35,0,0,1-6-24.26,26.07,26.07,0,0,1,31.7-18.74A25.5,25.5,0,0,1,319.19,183.1Zm-8,5.34a2.67,2.67,0,0,0-1.06-4.2,21.32,21.32,0,0,0-2.3-.75,20.36,20.36,0,0,0-7.57-.51,2.67,2.67,0,0,0-2.13,3.65l2.27,5.69c.4,1,1.39,1.46,3.41,1.74,1.73.24,2.69,0,3.32-.78ZM293.32,209.7c.63-.75.64-1.65.21-3.37s-1.24-2.62-2.31-2.82l-5.94-1.13a2.68,2.68,0,0,0-3.17,2.81,20.53,20.53,0,0,0,2.86,9,2.65,2.65,0,0,0,4.31.3Zm2-12.3c1.11-1.51,1.56-2.48,1.16-3.48l-2.26-5.65a2.67,2.67,0,0,0-4.09-1.14,20.61,20.61,0,0,0-6,7.34,2.68,2.68,0,0,0,1.92,3.78l6,1.12C293.09,199.57,294.22,198.91,295.33,197.4Z" transform="translate(-63.65 -158.22)"/><path class="d" d="M376.18,235.15a7.35,7.35,0,0,1,4.05.93,3.36,3.36,0,0,1,1.41,3,3.41,3.41,0,0,1-1.43,3.07,7.37,7.37,0,0,1-4.08.94h-.83v3.95h-2.66V235.46a14.63,14.63,0,0,1,1.84-.24C375.13,235.17,375.69,235.15,376.18,235.15Zm.17,2.26-.57,0-.48,0v3.4h.83a4.48,4.48,0,0,0,2.07-.37,1.42,1.42,0,0,0,.7-1.39,1.69,1.69,0,0,0-.18-.82,1.41,1.41,0,0,0-.51-.52,2.27,2.27,0,0,0-.81-.27A6.6,6.6,0,0,0,376.35,237.41Z" transform="translate(-63.65 -158.22)"/><path class="d" d="M390.34,247.07q-.19-.62-.42-1.26l-.45-1.29h-4.6l-.45,1.29q-.23.65-.42,1.26h-2.75c.44-1.27.86-2.44,1.26-3.52s.78-2.09,1.17-3,.75-1.86,1.12-2.71.75-1.7,1.15-2.51h2.52c.38.81.76,1.65,1.14,2.51s.76,1.76,1.14,2.71.77,2,1.17,3,.82,2.25,1.26,3.52ZM387.15,238c-.06.17-.14.4-.26.69l-.39,1c-.14.38-.3.81-.48,1.27s-.37,1-.55,1.46h3.37c-.18-.51-.36-1-.53-1.46s-.33-.89-.48-1.28-.28-.73-.4-1S387.22,238.12,387.15,238Z" transform="translate(-63.65 -158.22)"/><path class="d" d="M397.23,237.53v1.94h.86a12.6,12.6,0,0,1,2.34.2,4.85,4.85,0,0,1,1.73.67,3,3,0,0,1,1.08,1.19,3.84,3.84,0,0,1,.38,1.78,3.3,3.3,0,0,1-1.42,2.92,7.23,7.23,0,0,1-4.06,1q-.7,0-1.62-.09a13.16,13.16,0,0,1-1.83-.3V235.29h7.82v2.24Zm1,7.4a7.85,7.85,0,0,0,1-.07,2.86,2.86,0,0,0,.84-.25,1.56,1.56,0,0,0,.59-.48,1.33,1.33,0,0,0,.22-.8,1.57,1.57,0,0,0-.2-.83,1.37,1.37,0,0,0-.58-.51,2.86,2.86,0,0,0-.92-.26,11,11,0,0,0-1.22-.07h-.78v3.23l.45,0Z" transform="translate(-63.65 -158.22)"/><path class="d" d="M417,241.17a7.23,7.23,0,0,1-.45,2.66,5.38,5.38,0,0,1-1.23,1.92,5.12,5.12,0,0,1-1.86,1.17,6.81,6.81,0,0,1-2.32.39,6.58,6.58,0,0,1-2.28-.39,5.33,5.33,0,0,1-1.87-1.17,5.44,5.44,0,0,1-1.26-1.92,7.22,7.22,0,0,1-.46-2.66,6.83,6.83,0,0,1,.48-2.66,5.62,5.62,0,0,1,1.28-1.93,5.28,5.28,0,0,1,1.87-1.17,6.48,6.48,0,0,1,2.24-.39,6.66,6.66,0,0,1,2.28.39,5.28,5.28,0,0,1,1.87,1.17,5.42,5.42,0,0,1,1.25,1.93A7,7,0,0,1,417,241.17Zm-9,0a5.35,5.35,0,0,0,.21,1.56,3.57,3.57,0,0,0,.61,1.2,2.74,2.74,0,0,0,1,.78,3.13,3.13,0,0,0,1.33.27,3.18,3.18,0,0,0,1.32-.27,2.65,2.65,0,0,0,1-.78,3.4,3.4,0,0,0,.61-1.2,5.34,5.34,0,0,0,.22-1.56,5.46,5.46,0,0,0-.22-1.57,3.53,3.53,0,0,0-.61-1.21,2.73,2.73,0,0,0-1-.77,3.18,3.18,0,0,0-1.32-.27,3,3,0,0,0-1.33.28,2.74,2.74,0,0,0-1,.78,3.57,3.57,0,0,0-.61,1.2A5.45,5.45,0,0,0,408,241.17Z" transform="translate(-63.65 -158.22)"/><path class="d" d="M427.52,235.29v2.26H424v9.52h-2.66v-9.52h-3.55v-2.26Z" transform="translate(-63.65 -158.22)"/><path class="d" d="M435.73,247.07q-.19-.62-.42-1.26l-.45-1.29h-4.61c-.14.43-.29.86-.44,1.29s-.29.85-.42,1.26h-2.75c.44-1.27.86-2.44,1.26-3.52s.78-2.09,1.17-3,.75-1.86,1.12-2.71.75-1.7,1.15-2.51h2.52c.38.81.76,1.65,1.14,2.51s.75,1.76,1.14,2.71.77,2,1.17,3,.82,2.25,1.26,3.52ZM432.54,238c-.06.17-.14.4-.26.69l-.39,1c-.14.38-.3.81-.48,1.27s-.37,1-.55,1.46h3.37c-.18-.51-.36-1-.53-1.46s-.33-.89-.48-1.28-.28-.73-.4-1S432.61,238.12,432.54,238Z" transform="translate(-63.65 -158.22)"/><path class="d" d="M440.08,247.07V235.29h8v2.23h-5.31v2.31h4.71V242h-4.71v2.84h5.7v2.23Z" transform="translate(-63.65 -158.22)"/><path class="d" d="M453.51,235.29c.21.37.44.83.71,1.38s.55,1.15.83,1.79.58,1.29.87,2l.8,1.89c.25-.59.51-1.22.8-1.89s.57-1.32.86-2,.57-1.24.83-1.79.51-1,.71-1.38h2.42c.11.78.21,1.66.31,2.62s.18,2,.25,3,.15,2.1.21,3.15.12,2,.16,3h-2.58c0-1.15-.08-2.39-.14-3.74s-.14-2.71-.25-4.08l-.69,1.58c-.25.58-.49,1.16-.74,1.73s-.48,1.13-.71,1.66-.42,1-.58,1.35h-1.85l-.58-1.35-.71-1.66-.74-1.73c-.25-.58-.48-1.1-.68-1.58-.11,1.37-.2,2.73-.26,4.08s-.1,2.59-.13,3.74H450c0-.93.1-1.92.17-3s.13-2.1.2-3.15.16-2.06.26-3,.2-1.84.31-2.62Z" transform="translate(-63.65 -158.22)"/><path class="d" d="M475.08,247.31a5.73,5.73,0,0,1-4.37-1.6,6.35,6.35,0,0,1-1.51-4.54,7.1,7.1,0,0,1,.46-2.61,5.81,5.81,0,0,1,1.26-1.94,5.49,5.49,0,0,1,1.9-1.2,7,7,0,0,1,2.4-.4,7.13,7.13,0,0,1,1.36.11,9,9,0,0,1,1.07.25,6.23,6.23,0,0,1,.77.3,4.63,4.63,0,0,1,.44.24l-.77,2.14a6.13,6.13,0,0,0-1.26-.49,5.88,5.88,0,0,0-1.64-.21,3.53,3.53,0,0,0-1.2.21,2.65,2.65,0,0,0-1,.65,3.23,3.23,0,0,0-.72,1.17,4.87,4.87,0,0,0-.27,1.73,6.15,6.15,0,0,0,.18,1.52,3.2,3.2,0,0,0,.57,1.22,2.72,2.72,0,0,0,1.05.8,3.68,3.68,0,0,0,1.56.3,6.54,6.54,0,0,0,1-.07,7,7,0,0,0,.82-.16,4.65,4.65,0,0,0,.63-.21l.49-.22.73,2.12a6.13,6.13,0,0,1-1.58.61A8.86,8.86,0,0,1,475.08,247.31Z" transform="translate(-63.65 -158.22)"/><path class="d" d="M491.88,238.38a3.09,3.09,0,0,1-.25,1.24,5.83,5.83,0,0,1-.67,1.15,9.07,9.07,0,0,1-.92,1.06c-.34.34-.67.67-1,1l-.55.54q-.3.3-.57.6c-.18.21-.34.39-.48.57a1.5,1.5,0,0,0-.27.43h5.07v2.13h-7.86a3.14,3.14,0,0,1,0-.48v-.4a4.22,4.22,0,0,1,.26-1.5,6,6,0,0,1,.69-1.27,8.23,8.23,0,0,1,1-1.09l1.06-1,.77-.74c.24-.24.45-.46.63-.68a3.08,3.08,0,0,0,.42-.67,1.47,1.47,0,0,0,.16-.67,1.21,1.21,0,0,0-.43-1.05,1.7,1.7,0,0,0-1.05-.31,2.43,2.43,0,0,0-.86.15,3.78,3.78,0,0,0-.73.34,4.69,4.69,0,0,0-.57.39c-.16.13-.28.23-.36.31L484,236.61a6.45,6.45,0,0,1,1.75-1.14,5.09,5.09,0,0,1,2.13-.45,6.16,6.16,0,0,1,1.78.23,3.44,3.44,0,0,1,1.24.68,2.55,2.55,0,0,1,.71,1A4.07,4.07,0,0,1,491.88,238.38Z" transform="translate(-63.65 -158.22)"/><path class="d" d="M502.18,241.15a7.77,7.77,0,0,1-1.13,4.57,3.86,3.86,0,0,1-6.24,0,7.85,7.85,0,0,1-1.13-4.57,10.37,10.37,0,0,1,.3-2.62,5.84,5.84,0,0,1,.86-1.92,3.89,3.89,0,0,1,1.34-1.19,3.76,3.76,0,0,1,1.75-.4,3.61,3.61,0,0,1,3.12,1.59A7.71,7.71,0,0,1,502.18,241.15Zm-2.58,0a12.93,12.93,0,0,0-.09-1.6,5.16,5.16,0,0,0-.27-1.25,1.86,1.86,0,0,0-.51-.82,1.23,1.23,0,0,0-1.59,0,2.06,2.06,0,0,0-.51.82,5.65,5.65,0,0,0-.28,1.25,13.06,13.06,0,0,0-.08,1.6,13.51,13.51,0,0,0,.08,1.62,5.75,5.75,0,0,0,.28,1.26,2,2,0,0,0,.51.81,1.23,1.23,0,0,0,1.59,0,1.82,1.82,0,0,0,.51-.81,5.25,5.25,0,0,0,.27-1.26A13.39,13.39,0,0,0,499.6,241.15Z" transform="translate(-63.65 -158.22)"/><path class="d" d="M511.84,241.15a7.85,7.85,0,0,1-1.13,4.57,3.86,3.86,0,0,1-6.24,0,7.77,7.77,0,0,1-1.13-4.57,10.37,10.37,0,0,1,.3-2.62,5.83,5.83,0,0,1,.85-1.92,4,4,0,0,1,1.35-1.19,3.73,3.73,0,0,1,1.75-.4,3.63,3.63,0,0,1,3.12,1.59A7.78,7.78,0,0,1,511.84,241.15Zm-2.59,0a13.06,13.06,0,0,0-.08-1.6,6.32,6.32,0,0,0-.27-1.25,2.06,2.06,0,0,0-.51-.82,1.17,1.17,0,0,0-.8-.29,1.13,1.13,0,0,0-.79.29,2.06,2.06,0,0,0-.51.82,5.14,5.14,0,0,0-.28,1.25,12.93,12.93,0,0,0-.09,1.6,13.39,13.39,0,0,0,.09,1.62,5.22,5.22,0,0,0,.28,1.26,2,2,0,0,0,.51.81,1.13,1.13,0,0,0,.79.29,1.17,1.17,0,0,0,.8-.29,2,2,0,0,0,.51-.81,6.43,6.43,0,0,0,.27-1.26A13.51,13.51,0,0,0,509.25,241.15Z" transform="translate(-63.65 -158.22)"/><path class="d" d="M518.54,243.6a1.66,1.66,0,0,0-.23-.87,1.59,1.59,0,0,0-.76-.64,5.33,5.33,0,0,0-1.46-.39,16.2,16.2,0,0,0-2.31-.14q.18-1.58.3-3.21c.08-1.09.14-2.11.19-3.06h6.37v2.12h-4.25c0,.41,0,.8-.07,1.18s-.06.72-.1,1a6.33,6.33,0,0,1,3.67,1.16,3.43,3.43,0,0,1,1.18,2.77,4,4,0,0,1-.29,1.51,3.23,3.23,0,0,1-.87,1.21,4,4,0,0,1-1.45.79,6.34,6.34,0,0,1-2.05.29,8,8,0,0,1-1-.06c-.33,0-.66-.09-1-.15s-.59-.13-.84-.19a3.34,3.34,0,0,1-.58-.21l.46-2.09a7,7,0,0,0,1.12.37,6.81,6.81,0,0,0,1.67.17,2.54,2.54,0,0,0,1.7-.46A1.44,1.44,0,0,0,518.54,243.6Z" transform="translate(-63.65 -158.22)"/><path class="d" d="M530.16,247.07h-2.65V235.29h8v2.24h-5.39Z" transform="translate(-63.65 -158.22)"/><path class="d" d="M548.42,241.17a7.23,7.23,0,0,1-.45,2.66,5.38,5.38,0,0,1-1.23,1.92,5.12,5.12,0,0,1-1.86,1.17,6.81,6.81,0,0,1-2.32.39,6.58,6.58,0,0,1-2.28-.39,5.24,5.24,0,0,1-1.87-1.17,5.44,5.44,0,0,1-1.26-1.92,7,7,0,0,1-.46-2.66,6.83,6.83,0,0,1,.48-2.66,5.48,5.48,0,0,1,1.28-1.93,5.28,5.28,0,0,1,1.87-1.17,6.44,6.44,0,0,1,2.24-.39,6.56,6.56,0,0,1,2.27.39,5.11,5.11,0,0,1,1.87,1.17,5.3,5.3,0,0,1,1.26,1.93A7,7,0,0,1,548.42,241.17Zm-9,0a5.35,5.35,0,0,0,.21,1.56,3.57,3.57,0,0,0,.61,1.2,2.65,2.65,0,0,0,1,.78,3.36,3.36,0,0,0,2.64,0,2.69,2.69,0,0,0,1-.78,3.4,3.4,0,0,0,.61-1.2,5.35,5.35,0,0,0,.21-1.56,5.47,5.47,0,0,0-.21-1.57,3.53,3.53,0,0,0-.61-1.21,2.77,2.77,0,0,0-1-.77,3.1,3.1,0,0,0-1.31-.27,3,3,0,0,0-1.33.28,2.65,2.65,0,0,0-1,.78,3.57,3.57,0,0,0-.61,1.2A5.45,5.45,0,0,0,539.43,241.17Z" transform="translate(-63.65 -158.22)"/><path class="d" d="M549.61,244.82h1.7a11.74,11.74,0,0,0,1-2.15,13.85,13.85,0,0,0,.53-2.18,18.74,18.74,0,0,0,.22-2.28c0-.78.05-1.6.05-2.46v-.46h7.78v9.53h2v5.39h-2.55v-3.14h-8.19v3.14h-2.55Zm6-7.29q0,.91-.12,1.89c-.06.65-.15,1.28-.26,1.91a14.11,14.11,0,0,1-.45,1.84,8.46,8.46,0,0,1-.71,1.65h4.24v-7.29Z" transform="translate(-63.65 -158.22)"/><path class="d" d="M572.83,247.07q-.2-.62-.42-1.26l-.45-1.29h-4.6l-.45,1.29q-.23.65-.42,1.26h-2.75c.44-1.27.86-2.44,1.26-3.52s.79-2.09,1.17-3,.75-1.86,1.12-2.71.76-1.7,1.15-2.51H571c.39.81.77,1.65,1.14,2.51s.76,1.76,1.14,2.71.77,2,1.17,3,.82,2.25,1.26,3.52ZM569.65,238c-.06.17-.15.4-.26.69s-.25.64-.39,1l-.49,1.27c-.18.46-.36,1-.55,1.46h3.37c-.18-.51-.36-1-.52-1.46s-.33-.89-.49-1.28-.28-.73-.4-1S569.72,238.12,569.65,238Z" transform="translate(-63.65 -158.22)"/><polygon class="a" points="344.47 58.63 335.34 58.63 335.34 21.54 321.05 21.54 321.05 58.63 311.91 58.63 311.91 21.54 297.56 21.54 297.56 68.25 358.82 68.25 358.82 21.54 344.47 21.54 344.47 58.63"/><path class="a" d="M564.23,183.55a5,5,0,0,0-1.83-2.74,4.93,4.93,0,0,0-3.11-1.05H546a4.93,4.93,0,0,0-3.11,1.05,5.15,5.15,0,0,0-1.83,2.74L528.9,226.47h15l2.36-10.09H559l2.37,10.09h15Z" transform="translate(-63.65 -158.22)"/><path class="e" d="M548.59,206.09l2.31-10q.4-2.16.81-5.34h1.83q.19,2.16.81,5.34l2.3,10Z" transform="translate(-63.65 -158.22)"/><polygon class="a" points="445.54 38.33 433.76 38.33 433.76 21.54 419.07 21.54 419.07 68.25 433.76 68.25 433.76 48.61 445.54 48.61 445.54 68.25 460.23 68.25 460.23 21.54 445.54 21.54 445.54 38.33"/><path class="a" d="M448.27,200.88a40.49,40.49,0,0,0-3,7.17h-.48a50.88,50.88,0,0,0,.75-7.58V179.76H431.61v46.71h14l11.44-21.53a38.22,38.22,0,0,0,2.84-7.18h.47a46.88,46.88,0,0,0-.74,7.25v21.46h13.94V179.76H459.64Z" transform="translate(-63.65 -158.22)"/><path class="c" d="M75.91,247.07q-.19-.62-.42-1.26L75,244.52h-4.6L70,245.81q-.22.65-.42,1.26H66.82c.44-1.27.86-2.44,1.26-3.52s.79-2.09,1.17-3,.76-1.86,1.13-2.71.75-1.7,1.15-2.51H74c.39.81.77,1.65,1.15,2.51s.75,1.76,1.13,2.71.77,2,1.17,3,.82,2.25,1.26,3.52ZM72.73,238c-.06.17-.15.4-.26.69s-.24.64-.39,1L71.59,241c-.18.46-.36,1-.55,1.46h3.37c-.18-.51-.35-1-.52-1.46s-.33-.89-.48-1.28-.29-.73-.4-1S72.8,238.12,72.73,238Z" transform="translate(-63.65 -158.22)"/><path class="c" d="M89,247.22c-.64,0-1.28,0-1.93-.06a13.21,13.21,0,0,1-2-.28V235.46a17.19,17.19,0,0,1,1.78-.23c.65,0,1.25-.08,1.8-.08a13.19,13.19,0,0,1,2.07.16,4.91,4.91,0,0,1,1.62.56,2.92,2.92,0,0,1,1.07,1,3.08,3.08,0,0,1,.38,1.58,2.49,2.49,0,0,1-1.36,2.22,2.79,2.79,0,0,1,1.53,1.16,3.36,3.36,0,0,1,.41,1.65A3.19,3.19,0,0,1,93,246.29,7.17,7.17,0,0,1,89,247.22Zm-1.34-7.31H88.9a3.59,3.59,0,0,0,1.75-.31,1.08,1.08,0,0,0,.53-1,1.05,1.05,0,0,0-.54-1,3.57,3.57,0,0,0-1.6-.29h-.73a7,7,0,0,0-.7,0Zm0,2v3l.63.05.75,0a4.72,4.72,0,0,0,1.92-.34,1.26,1.26,0,0,0,.73-1.26,1.24,1.24,0,0,0-.61-1.17,3.62,3.62,0,0,0-1.75-.34Z" transform="translate(-63.65 -158.22)"/><path class="c" d="M109.64,235.29v2.26h-3.55v9.52h-2.65v-9.52H99.89v-2.26Z" transform="translate(-63.65 -158.22)"/><path class="c" d="M126.93,241.17a7.23,7.23,0,0,1-.45,2.66,5.38,5.38,0,0,1-1.23,1.92,5.12,5.12,0,0,1-1.86,1.17,6.81,6.81,0,0,1-2.32.39,6.58,6.58,0,0,1-2.28-.39,5.33,5.33,0,0,1-1.87-1.17,5.44,5.44,0,0,1-1.26-1.92,7.22,7.22,0,0,1-.46-2.66,6.83,6.83,0,0,1,.48-2.66,5.62,5.62,0,0,1,1.28-1.93,5.28,5.28,0,0,1,1.87-1.17,6.48,6.48,0,0,1,2.24-.39,6.66,6.66,0,0,1,2.28.39,5.28,5.28,0,0,1,1.87,1.17,5.42,5.42,0,0,1,1.25,1.93A7,7,0,0,1,126.93,241.17Zm-9,0a5.35,5.35,0,0,0,.21,1.56,3.57,3.57,0,0,0,.61,1.2,2.74,2.74,0,0,0,1,.78,3.13,3.13,0,0,0,1.33.27,3.18,3.18,0,0,0,1.32-.27,2.65,2.65,0,0,0,1-.78,3.4,3.4,0,0,0,.61-1.2,5.34,5.34,0,0,0,.22-1.56,5.46,5.46,0,0,0-.22-1.57,3.53,3.53,0,0,0-.61-1.21,2.73,2.73,0,0,0-1-.77,3.18,3.18,0,0,0-1.32-.27,3,3,0,0,0-1.33.28,2.74,2.74,0,0,0-1,.78,3.57,3.57,0,0,0-.61,1.2A5.45,5.45,0,0,0,117.94,241.17Z" transform="translate(-63.65 -158.22)"/><path class="c" d="M137,235.29c.2.37.44.83.71,1.38s.54,1.15.83,1.79.58,1.29.86,2,.55,1.3.8,1.89l.81-1.89c.28-.67.57-1.32.86-2s.56-1.24.83-1.79.5-1,.71-1.38h2.41c.12.78.22,1.66.32,2.62s.18,2,.25,3,.14,2.1.21,3.15.11,2,.16,3H144.2c0-1.15-.07-2.39-.13-3.74s-.14-2.71-.26-4.08c-.2.48-.43,1-.68,1.58l-.74,1.73c-.24.58-.48,1.13-.71,1.66l-.58,1.35h-1.85l-.58-1.35-.71-1.66-.74-1.73c-.25-.58-.48-1.1-.68-1.58-.12,1.37-.2,2.73-.26,4.08s-.1,2.59-.13,3.74h-2.59c.05-.93.1-1.92.16-3s.13-2.1.21-3.15.16-2.06.25-3,.2-1.84.32-2.62Z" transform="translate(-63.65 -158.22)"/><path class="c" d="M161.81,247.07q-.19-.62-.42-1.26l-.45-1.29h-4.6l-.45,1.29c-.15.43-.29.85-.41,1.26h-2.76c.44-1.27.86-2.44,1.26-3.52s.79-2.09,1.17-3,.76-1.86,1.13-2.71.75-1.7,1.15-2.51h2.51c.39.81.77,1.65,1.15,2.51s.75,1.76,1.13,2.71.77,2,1.17,3,.82,2.25,1.27,3.52ZM158.63,238c-.06.17-.15.4-.26.69s-.24.64-.39,1l-.49,1.27c-.18.46-.36,1-.55,1.46h3.37c-.18-.51-.35-1-.52-1.46s-.33-.89-.48-1.28-.29-.73-.4-1S158.7,238.12,158.63,238Z" transform="translate(-63.65 -158.22)"/><path class="c" d="M173.58,247.07h-2.65V235.29h8v2.24h-5.39Z" transform="translate(-63.65 -158.22)"/><path class="c" d="M192.28,247.07q-.19-.62-.42-1.26c-.15-.43-.31-.86-.45-1.29H186.8c-.14.43-.29.86-.44,1.29s-.29.85-.42,1.26h-2.75c.44-1.27.86-2.44,1.26-3.52s.78-2.09,1.16-3,.76-1.86,1.13-2.71.75-1.7,1.15-2.51h2.52c.38.81.76,1.65,1.14,2.51s.75,1.76,1.14,2.71.77,2,1.17,3,.81,2.25,1.26,3.52ZM189.09,238c-.06.17-.14.4-.26.69l-.39,1c-.14.38-.3.81-.48,1.27s-.37,1-.55,1.46h3.37c-.18-.51-.36-1-.53-1.46s-.33-.89-.48-1.28-.28-.73-.4-1S189.16,238.12,189.09,238Z" transform="translate(-63.65 -158.22)"/><path class="c" d="M202.65,239.88h1.79a4.57,4.57,0,0,0,.85-.07,1.87,1.87,0,0,0,.7-.24,1.33,1.33,0,0,0,.47-.44,1.29,1.29,0,0,0,.17-.68,1,1,0,0,0-.46-.87,2.46,2.46,0,0,0-1.29-.29,5.38,5.38,0,0,0-1.64.22,6.42,6.42,0,0,0-1.32.57l-.85-2.1a6,6,0,0,1,1.64-.68,8.08,8.08,0,0,1,2.18-.27,6.6,6.6,0,0,1,1.77.22,4.34,4.34,0,0,1,1.41.62,2.87,2.87,0,0,1,.93,1.06,3.18,3.18,0,0,1,.33,1.49,2.68,2.68,0,0,1-.35,1.28,3,3,0,0,1-1.06,1.08,4.41,4.41,0,0,1,.74.47,3.63,3.63,0,0,1,.61.63,2.83,2.83,0,0,1,.42.81,3.2,3.2,0,0,1,.15,1,3,3,0,0,1-1.33,2.75,6.87,6.87,0,0,1-3.72.86,7.81,7.81,0,0,1-1.18-.09c-.39-.06-.76-.13-1.12-.21a8.43,8.43,0,0,1-1-.3,6.7,6.7,0,0,1-.83-.35l.78-2.08.59.23c.23.09.49.17.77.25s.58.14.89.2a4.68,4.68,0,0,0,.91.09,4.26,4.26,0,0,0,1.82-.33,1.14,1.14,0,0,0,.68-1.12,1.33,1.33,0,0,0-.22-.8,1.42,1.42,0,0,0-.6-.47,3.71,3.71,0,0,0-.9-.22,9.89,9.89,0,0,0-1.13-.06h-1.6Z" transform="translate(-63.65 -158.22)"/><path class="c" d="M216.73,247.07V235.29h2.63v7c.41-.61.84-1.25,1.31-1.91s.93-1.3,1.4-1.92.93-1.2,1.39-1.75a18.23,18.23,0,0,1,1.24-1.37h2.16v11.78h-2.62v-7.72a40.34,40.34,0,0,0-2.82,3.72q-1.33,2-2.47,4Z" transform="translate(-63.65 -158.22)"/><path class="c" d="M241.44,235.29h2.66v11.78h-2.66v-5H237v5h-2.65V235.29H237v4.5h4.45Z" transform="translate(-63.65 -158.22)"/></svg>