<?xml version="1.0" encoding="iso-8859-1"?><!-- Generator: Adobe Illustrator 19.0.0, SVG Export Plug-In . SVG Version: 6.00 Build 0)  --><svg version="1.1" id="Capa_1" xmlns="http://www.w3.org/2000/svg" xmlns:xlink="http://www.w3.org/1999/xlink" x="0px" y="0px" viewBox="0 0 59 59" style="enable-background:new 0 0 59 59;" xml:space="preserve"><defs><mask id="dots"><g><circle style="fill:#fff;" cx="22.5" cy="28" r="1.5"/><circle style="fill:#fff;" cx="29.5" cy="28" r="1.5"/><circle style="fill:#fff;" cx="36.5" cy="28" r="1.5"/><circle style="fill:#fff;" cx="43.5" cy="28" r="1.5"/><circle style="fill:#fff;" cx="50.5" cy="28" r="1.5"/><circle style="fill:#fff;" cx="8.5" cy="36" r="1.5"/><circle style="fill:#fff;" cx="15.5" cy="36" r="1.5"/><circle style="fill:#fff;" cx="8.5" cy="28" r="1.5"/><circle style="fill:#fff;" cx="15.5" cy="28" r="1.5"/><circle style="fill:#fff;" cx="22.5" cy="36" r="1.5"/><circle style="fill:#fff;" cx="29.5" cy="36" r="1.5"/><circle style="fill:#fff;" cx="36.5" cy="36" r="1.5"/><circle style="fill:#fff;" cx="43.5" cy="36" r="1.5"/><circle style="fill:#fff;" cx="50.5" cy="36" r="1.5"/><circle style="fill:#fff;" cx="8.5" cy="43" r="1.5"/><circle style="fill:#fff;" cx="15.5" cy="43" r="1.5"/><circle style="fill:#fff;" cx="22.5" cy="43" r="1.5"/><circle style="fill:#fff;" cx="29.5" cy="43" r="1.5"/><circle style="fill:#fff;" cx="36.5" cy="43" r="1.5"/><circle style="fill:#fff;" cx="43.5" cy="43" r="1.5"/><circle style="fill:#fff;" cx="50.5" cy="43" r="1.5"/><circle style="fill:#fff;" cx="43.5" cy="51" r="1.5"/><circle style="fill:#fff;" cx="50.5" cy="51" r="1.5"/><circle style="fill:#fff;" cx="8.5" cy="51" r="1.5"/><circle style="fill:#fff;" cx="15.5" cy="51" r="1.5"/><circle style="fill:#fff;" cx="22.5" cy="51" r="1.5"/><circle style="fill:#fff;" cx="29.5" cy="51" r="1.5"/><circle style="fill:#fff;" cx="36.5" cy="51" r="1.5"/></g></mask><linearGradient id="gradient" x1="0" y1="100%" x2="100%" y2="0"><stop offset="0%" stop-color="#2A76B0"/><stop offset="100%" stop-color="#2AB0A2"/></linearGradient></defs><rect x="0.5" y="12" style="fill:#D6D6D6;" width="58" height="47"/><rect x="0.5" y="12" fill="url(#gradient)" mask="url(#dots)" width="58" height="47"/><g><path style="fill:#424A60;" d="M33.013,1.508l-1.066,1.693c5.821,3.664,16.971,9.621,17.083,9.681l0.941-1.764		C49.859,11.059,38.772,5.135,33.013,1.508z"/><path style="fill:#424A60;" d="M9.029,11.118l0.941,1.764c0.112-0.06,11.262-6.017,17.083-9.681l-1.066-1.693		C20.228,5.134,9.141,11.059,9.029,11.118z"/></g><circle style="fill:#F4D34E;stroke:#F87F02;stroke-width:2;stroke-linejoin:round;stroke-miterlimit:10;" cx="29.5" cy="5" r="4"/><rect x="0.5" y="12" style="fill:#424A60;" width="58" height="7"/></svg>