<?xml version="1.0" encoding="utf-8"?>
<!-- Generator: Adobe Illustrator 23.0.2, SVG Export Plug-In . SVG Version: 6.00 Build 0)  -->
<svg version="1.1" id="Capa_1" xmlns="http://www.w3.org/2000/svg" xmlns:xlink="http://www.w3.org/1999/xlink" x="0px" y="0px"
	 viewBox="0 0 512 512" style="enable-background:new 0 0 512 512;" xml:space="preserve">
<style type="text/css">
	.st0{fill:#96DFEB;}
	.st1{fill:#6FD0E9;}
	.st2{fill:#74C432;}
	.st3{fill:#49AE3A;}
	.st4{fill:#5C546A;}
	.st5{fill:#A0D92A;}
	.st6{fill:#1D9942;}
	.st7{fill:#44BEF1;}
</style>
<g>
	<g>
		<path class="st0" d="M52.9,439.6L208,177.4V32h96v145.4l155.1,262.2c8.9,15,9,33.1,0.4,48.2S435.3,512,417.8,512H94.2
			c-17.5,0-33-9.1-41.7-24.2C43.8,472.6,44,454.6,52.9,439.6z"/>
	</g>
	<g>
		<path class="st1" d="M256,32h48v145.4l155.1,262.2c8.9,15,9,33.1,0.4,48.2S435.3,512,417.8,512H256V32z"/>
	</g>
	<g>
		<path class="st2" d="M80.4,455.9l44.9-75.9c1.4-2.4,4.1-3.9,6.9-3.9h247.6c2.8,0,5.4,1.5,6.9,3.9l44.9,75.9
			c3,5.1,3.1,10.9,0.1,16.1c-2.9,5.1-8,8.1-13.9,8.1H94.2c-5.9,0-11-2.9-13.9-8.1C77.3,466.8,77.4,460.9,80.4,455.9z"/>
	</g>
	<g>
		<path class="st3" d="M256,376h123.8c2.8,0,5.4,1.5,6.9,3.9l44.9,75.9c3,5.1,3.1,10.9,0.1,16.1c-2.9,5.1-8,8.1-13.9,8.1H256V376z"
			/>
	</g>
	<g>
		<g>
			<path class="st4" d="M232,264h48c4.4,0,8-3.6,8-8s-3.6-8-8-8h-48c-4.4,0-8,3.6-8,8S227.6,264,232,264z"/>
		</g>
	</g>
	<g>
		<g>
			<path class="st4" d="M232,304h48c4.4,0,8-3.6,8-8s-3.6-8-8-8h-48c-4.4,0-8,3.6-8,8S227.6,304,232,304z"/>
		</g>
	</g>
	<g>
		<g>
			<path class="st4" d="M232,344h48c4.4,0,8-3.6,8-8s-3.6-8-8-8h-48c-4.4,0-8,3.6-8,8S227.6,344,232,344z"/>
		</g>
	</g>
	<g>
		<circle class="st5" cx="224" cy="432" r="16"/>
	</g>
	<g>
		<circle class="st6" cx="312" cy="408" r="16"/>
	</g>
	<g>
		<circle class="st5" cx="168" cy="416" r="8"/>
	</g>
	<g>
		<circle class="st6" cx="288" cy="440" r="8"/>
	</g>
	<g>
		<circle class="st6" cx="360" cy="424" r="8"/>
	</g>
	<g>
		<path class="st7" d="M208,0h96c8.8,0,16,7.2,16,16l0,0c0,8.8-7.2,16-16,16h-96c-8.8,0-16-7.2-16-16l0,0C192,7.2,199.2,0,208,0z"/>
	</g>
</g>
</svg>
