<?xml version="1.0" encoding="utf-8"?>
<!-- Generator: Adobe Illustrator 23.0.2, SVG Export Plug-In . SVG Version: 6.00 Build 0)  -->
<svg version="1.1" id="Слой_1" xmlns="http://www.w3.org/2000/svg" xmlns:xlink="http://www.w3.org/1999/xlink" x="0px" y="0px"
	 viewBox="0 0 512 512" style="enable-background:new 0 0 512 512;" xml:space="preserve">
<style type="text/css">
	.st0{fill:#7F8C8D;}
	.st1{fill:#49AE3A;}
	.st2{fill:#7ED09E;}
	.st3{fill:#A0D92A;}
	.st4{fill:#1D9942;}
	.st5{fill:#F0C419;}
	.st6{fill:#95A5A5;}
	.st7{fill:#F4D34E;}
	.st8{fill:#FFA001;}
</style>
<path id="Shape" class="st0" d="M256,313.4c-4.8,0-8.7-3.9-8.7-8.7V199.6c0-4.8,3.9-8.7,8.7-8.7s8.7,3.9,8.7,8.7v105.1
	C264.7,309.5,260.8,313.4,256,313.4z"/>
<path class="st1" d="M134.5,304.4h338.4c4.6-0.2,9,1.5,12.3,4.6s5.3,7.4,5.4,12v156.2c0.2,9.6-7.3,17.7-16.9,18.1H134.5V304.4z"/>
<path class="st2" d="M455.9,434c-6.9,0-13.5,2.8-18.3,7.7c-4.8,4.9-7.5,11.5-7.4,18.4H220.7c0.1-6.9-2.6-13.5-7.4-18.4
	c-4.8-4.9-11.4-7.7-18.3-7.7v-69.4c14.2-0.1,25.8-11.4,26.2-25.6h208.5c0.5,14.2,12.1,25.4,26.3,25.6V434z"/>
<path class="st3" d="M455.9,434c-6.9,0-13.5,2.8-18.3,7.7c-4.8,4.9-7.5,11.5-7.4,18.4H212.5c0.1-6.9-2.6-13.5-7.4-18.4
	c-4.8-4.9-11.4-7.7-18.3-7.7v-69.4c14.3,0.1,26-11.3,26.3-25.6h216.7c0.4,14.2,12,25.5,26.2,25.6V434z"/>
<ellipse id="Oval" transform="matrix(1 -3.999968e-03 3.999968e-03 1 -1.5974 1.2709)" class="st4" cx="316.9" cy="400" rx="52.1" ry="60.7"/>
<g>
	<path class="st3" d="M291,382.6c0-6.9,2.7-13.5,7.5-18.4s11.5-7.7,18.4-7.7c25.8-0.1,34.1,34.6,17.5,34.6c-4.8,0-8.6-3.9-8.7-8.7
		c0-3.5-2.1-6.7-5.4-8c-3.3-1.3-7-0.6-9.4,1.9s-3.2,6.2-1.8,9.5s4.5,5.3,8.1,5.3c4.8,0,8.7,3.9,8.7,8.6
		C325.8,416.4,291.1,408.4,291,382.6z"/>
	<path class="st3" d="M317.2,443.3c-25.7,0-34-34.6-17.4-34.6c4.8,0,8.7,3.9,8.7,8.7c0,3.5,2.1,6.7,5.4,8s7,0.6,9.5-1.9
		c2.5-2.5,3.2-6.2,1.9-9.5c-1.4-3.2-4.5-5.3-8-5.3c-3.1,0-6-1.6-7.5-4.3c-1.6-2.7-1.6-6,0-8.7c1.5-2.7,4.4-4.4,7.5-4.4
		c6.9,0,13.5,2.8,18.4,7.6c7.4,7.4,9.7,18.6,5.7,28.3C337.1,436.9,327.7,443.2,317.2,443.3L317.2,443.3z"/>
	<path class="st3" d="M317,373.8c-4.8,0-8.7-3.9-8.8-8.7v-26c0-3.1,1.6-6,4.3-7.5s6-1.6,8.7,0c2.7,1.5,4.4,4.4,4.4,7.5v26
		C325.6,369.9,321.8,373.8,317,373.8z"/>
	<path class="st3" d="M317.4,469.3c-4.8,0-8.7-3.9-8.8-8.7v-26c0-2.3,0.9-4.5,2.5-6.1c1.6-1.6,3.8-2.5,6.1-2.6
		c4.8,0,8.7,3.8,8.8,8.6v26C326,465.4,322.1,469.3,317.4,469.3L317.4,469.3z"/>
</g>
<path class="st5" d="M401.7,78c-5.7-3.7-11.5-7.4-17.6-10.7C390.1,70.6,396,74.2,401.7,78z"/>
<path class="st5" d="M110.3,78c5.7-3.9,11.6-7.4,17.6-10.7C121.8,70.6,116,74.3,110.3,78z"/>
<path class="st6" d="M256,43.4c-4.8,0-8.7-3.9-8.7-8.7v-26c0-4.8,3.9-8.7,8.7-8.7s8.7,3.9,8.7,8.7v26
	C264.7,39.5,260.8,43.4,256,43.4z"/>
<path d="M150,417.2c-4.8,0-8.8-3.9-8.9-8.7c0-2.3,0.9-4.5,2.5-6.1s3.8-2.5,6.1-2.6c4.8,0,8.7,3.9,8.8,8.7c0,2.3-0.9,4.5-2.5,6.1
	C154.4,416.3,152.2,417.2,150,417.2z"/>
<path class="st7" d="M212.6,442.6c0,19.2-35,34.7-78.1,34.7c-40.9,0-74.5-14-77.8-31.8c51,14.7,121.1-0.7,121.1-29v-2.9
	c0.3,0.1,0.6,0.2,0.9,0.3C199.2,420.2,212.6,430.7,212.6,442.6L212.6,442.6z"/>
<path class="st8" d="M212.6,442.6v34.7c0,19.2-35,34.7-78.1,34.7s-78.1-15.5-78.1-34.7v-31.8c0.1,0,0.2,0,0.3,0.1
	c3.3,17.8,36.9,31.8,77.8,31.8C177.6,477.3,212.6,461.8,212.6,442.6z"/>
<path class="st7" d="M212.6,329.8c0,34.2-99.1,47.2-142,20c-7.8-3.8-13.2-11.3-14.2-20c0-19.2,35-34.7,78.1-34.7
	S212.6,310.6,212.6,329.8z"/>
<path class="st8" d="M177.9,393.4v23.2c0,28.4-70,43.8-121.1,29c-0.9-0.4-35.1-9.3-35.1-29v-34.7c0,16.8,27.1,30.9,62.9,34
	c26.4,2.4,70.2-1.7,87.5-20.9C174.1,394.4,176.1,393.9,177.9,393.4L177.9,393.4z"/>
<path class="st7" d="M172.1,394.9c-6.2,6.2-13.8,10.9-22.2,13.6c-20.9,7.2-43.2,9.7-65.3,7.3C17.2,410-2,370.4,56.4,352.9v11.5
	c0,19.2,35,34.7,78.1,34.7C147.2,399.2,159.8,397.8,172.1,394.9z"/>
<path class="st8" d="M212.6,329.8v34.7c0,12.1-13.8,22.6-34.7,28.9c-53.1,15.2-121.5-1.3-121.5-28.9v-34.7c1,8.6,6.4,16.2,14.2,20
	C114.7,377.7,212.6,363.1,212.6,329.8z"/>
<path class="st8" d="M496.8,223.2c-12.4-87-83.5-153.4-165-177.7C204,7.4,61.4,71.8,22.7,191c-4.7,10.9-7.3,22.5-7.6,34.4
	c1.4,12.1,13.6,9.8,19.2,2.9c13.2-14.4,32.3-21.8,51.8-19.9c35.2,1.7,34.1,22.6,51.2,25.6c19.6,3.5,23.3-19.7,45.5-24.5
	c18-3.9,38.2-1,49.2,12.9c6.4,8.2,16.4,12.5,26.7,11.7c9.7-1.6,18.2-7.1,23.6-15.2c12.5-14,44.3-14,59.1-4.2
	c9.3,6.2,14.8,18,26.8,19.6c10.3,1.3,16.5-4.9,23.2-11.6c21.9-22,66.8-18,86.3,5.6c3.1,3.8,6.4,7.2,11.8,5.8
	C494.4,232.9,497.5,228.2,496.8,223.2z"/>
<path class="st7" d="M250.8,34.9c-36.7,0-66.2,36.7-82,65.7c-21.8,40.9-33.4,86.5-33.8,132.9c-12.2-3.5-14-16.8-34.5-22.8
	c-20.5-5.7-42.4-1.7-59.6,10.8c-4.7,3.9-8.2,11.8-14.6,12.7c-18.4,2.8-8.5-26.3-6.2-34.6C47.5,99.9,150.7,34.5,250.8,34.9z"/>
<path class="st7" d="M377,233.4C364,237.2,356.4,228,348,220c-7.9-7.6-18.5-11.8-29.4-11.7c-11.6-1-23.2,1.7-33.2,7.7
	c-4.3,3.2-6.5,8.2-10.7,11.5c-5.4,4.1-12,6.5-18.8,6.7V34.7c39.3,0,68.9,32.8,86.5,64.6C364.8,140.5,376.6,186.6,377,233.4
	L377,233.4z"/>
</svg>
