<?xml version="1.0" encoding="utf-8"?>
<!-- Generator: Adobe Illustrator 23.0.2, SVG Export Plug-In . SVG Version: 6.00 Build 0)  -->
<svg version="1.1" id="Слой_1" xmlns="http://www.w3.org/2000/svg" xmlns:xlink="http://www.w3.org/1999/xlink" x="0px" y="0px"
	 viewBox="0 0 511 512" style="enable-background:new 0 0 511 512;" xml:space="preserve">
<style type="text/css">
	.st0{fill:#959CB3;}
	.st1{fill:#707487;}
	.st2{fill:#C4C4C4;}
	.st3{fill:#AFAFAF;}
	.st4{fill:#49AE3A;}
	.st5{fill:#1D9942;}
	.st6{fill:#D6D6D6;}
	.st7{fill:#A0D92A;}
	.st8{fill:#74C432;}
</style>
<path class="st0" d="M225.2,481.5v15.5c0,7.8,6.3,14.1,14.1,14.1h33.5c7.7,0,13.9-6.2,13.9-13.9v-15.7H225.2z"/>
<path class="st1" d="M245.5,496.9v-15.5h-20.3v15.5c0,7.8,6.3,14.1,14.1,14.1h20.3C251.8,511,245.5,504.7,245.5,496.9z"/>
<path class="st2" d="M315.5,475.6v-39.1c-3.3,0-116.7,0-119.1,0v39c0,4.5,3.6,8.1,8.1,8.1h103.1
	C311.9,483.5,315.5,479.9,315.5,475.6z"/>
<path class="st3" d="M216.7,475.4v-39h-20.3v39c0,4.5,3.6,8.1,8.1,8.1h20.3C220.3,483.5,216.7,479.9,216.7,475.4z"/>
<path class="st4" d="M413.5,227.6c0-86.3-69.4-156.4-155.4-157.5c-87-1.2-158,67.4-159.7,154.4c-0.9,46.5,18.4,88.6,49.7,118
	c13.8,13,22.3,31.2,22.3,51h171c0-19.8,8.5-38,22.3-51C394.3,313.8,413.5,272.9,413.5,227.6z"/>
<path class="st5" d="M168.4,342.5c-31.3-29.4-50.6-71.4-49.7-118c1.6-82.8,66.1-149,147.3-154.1c-2.6-0.2-5.3-0.3-7.9-0.3
	c-87-1.2-158,67.4-159.7,154.4c-0.9,46.5,18.4,88.6,49.7,118c14.1,13.2,22.3,31.6,22.3,51h20.3C190.7,374.1,182.6,355.7,168.4,342.5
	z"/>
<path class="st6" d="M170.4,393.5v19.8c0,13.9,11.3,25.2,25.2,25.2h120.7c13.9,0,25.2-11.3,25.2-25.2v-19.8
	C333.5,393.5,177.8,393.5,170.4,393.5z"/>
<path class="st2" d="M190.9,413.3v-19.8h-20.5v19.8c0,13.9,11.3,25.2,25.2,25.2h20.5C202.2,438.5,190.9,427.2,190.9,413.3z"/>
<path class="st7" d="M264,157c-5-3-11.2-3-16.2,0c-34.1,20.6-57,58.1-57,100.9c0,42.8,22.8,80.2,57,100.9c5,3,11.2,3,16.2,0
	c34.1-20.6,57-58.1,57-100.9C321,215.1,298.1,177.6,264,157z"/>
<path class="st8" d="M211.2,257.8c0-41.9,21.9-78.7,54.9-99.6c-0.7-0.4-1.4-0.9-2.1-1.3c-5-3-11.2-3-16.2,0
	c-34.1,20.6-57,58.1-57,100.9c0,42.8,22.8,80.2,57,100.9c5,3,11.2,3,16.2,0c0.7-0.4,1.4-0.9,2.1-1.3
	C233.1,336.5,211.2,299.8,211.2,257.8z"/>
<g>
	<path class="st7" d="M58.3,233H37.1c-4.2,0-7.6-3.4-7.6-7.6c0-4.2,3.4-7.6,7.6-7.6h21.2c4.2,0,7.6,3.4,7.6,7.6
		C65.9,229.6,62.5,233,58.3,233z"/>
	<path class="st7" d="M474.7,233h-21.2c-4.2,0-7.6-3.4-7.6-7.6c0-4.2,3.4-7.6,7.6-7.6h21.2c4.2,0,7.6,3.4,7.6,7.6
		C482.4,229.6,478.9,233,474.7,233z"/>
	<path class="st7" d="M59.8,338.6c-2.1-3.6-0.9-8.3,2.8-10.4L81,317.6c3.6-2.1,8.3-0.9,10.4,2.8c2.1,3.6,0.9,8.3-2.8,10.4
		l-18.4,10.6C66.6,343.5,61.9,342.3,59.8,338.6z"/>
	<path class="st7" d="M420.5,130.4c-2.1-3.6-0.9-8.3,2.8-10.4l18.4-10.6c3.6-2.1,8.3-0.9,10.4,2.8c2.1,3.6,0.9,8.3-2.8,10.4
		l-18.4,10.6C427.2,135.3,422.6,134.1,420.5,130.4z"/>
	<path class="st7" d="M350.9,60.9c-3.6-2.1-4.9-6.8-2.8-10.4l10.6-18.4c2.1-3.6,6.8-4.9,10.4-2.8c3.6,2.1,4.9,6.8,2.8,10.4
		l-10.6,18.4C359.2,61.7,354.6,63,350.9,60.9z"/>
	<path class="st7" d="M255.9,35.4c-4.2,0-7.6-3.4-7.6-7.6V6.6c0-4.2,3.4-7.6,7.6-7.6c4.2,0,7.6,3.4,7.6,7.6v21.2
		C263.5,32,260.1,35.4,255.9,35.4z"/>
	<path class="st7" d="M150.5,58.1l-10.6-18.4c-2.1-3.6-0.9-8.3,2.8-10.4c3.6-2.1,8.3-0.9,10.4,2.8l10.6,18.4
		c2.1,3.6,0.9,8.3-2.8,10.4C157.3,63,152.6,61.7,150.5,58.1z"/>
	<path class="st7" d="M441.6,341.4l-18.4-10.6c-3.6-2.1-4.9-6.8-2.8-10.4s6.8-4.9,10.4-2.8l18.4,10.6c3.6,2.1,4.9,6.8,2.8,10.4
		S445.3,343.5,441.6,341.4z"/>
	<path class="st7" d="M81,133.2l-18.4-10.6c-3.6-2.1-4.9-6.8-2.8-10.4c2.1-3.6,6.8-4.9,10.4-2.8L88.6,120c3.6,2.1,4.9,6.8,2.8,10.4
		C89.3,134.1,84.6,135.3,81,133.2z"/>
</g>
<path class="st8" d="M263.5,293.4v-43.1l48.4-37.7c-2-4.8-4.3-9.4-6.9-13.9L263.5,231v-74.3c-4.7-2.6-10.5-2.6-15.2,0v74.5
	l-41.6-32.4c-2.6,4.5-4.9,9.1-6.9,13.9l48.5,37.8v43.1l-57.4-36.4c0,0.2,0,0.5,0,0.7c0,6.2,0.5,12.3,1.4,18.2l56,35.6v81.9h15.2v-82
	l56.1-35.6c0.9-5.9,1.4-11.9,1.4-18c0-0.3,0-0.6,0-0.9L263.5,293.4z"/>
</svg>
