<?xml version="1.0" encoding="utf-8"?>
<!-- Generator: Adobe Illustrator 23.0.3, SVG Export Plug-In . SVG Version: 6.00 Build 0)  -->
<svg version="1.1" id="Layer_1" xmlns="http://www.w3.org/2000/svg" xmlns:xlink="http://www.w3.org/1999/xlink" x="0px" y="0px"
	 viewBox="0 0 486.3 486.3" style="enable-background:new 0 0 486.3 486.3;" xml:space="preserve">
<style type="text/css">
	.st0{fill:#A03C27;}
	.st1{fill:#D8D7DA;}
	.st2{fill:#CC4327;}
	.st3{fill:#FFFFFF;}
</style>
<path class="st0" d="M243.1,0v104.4c44.1,0,80,35.9,80,80c0,44.1-35.9,80-80,80v221.9l146.4-184.1c26.3-33.3,40.2-73.2,40.2-115.6
	C429.8,83.7,346,0,243.1,0z"/>
<path class="st1" d="M323.1,184.4c0-44.1-35.9-80-80-80v160C287.3,264.4,323.1,228.5,323.1,184.4z"/>
<path class="st2" d="M163.1,184.4c0-44.1,35.9-80,80-80V0C140.3,0,56.5,83.7,56.5,186.6c0,42.4,13.9,82.3,40.2,115.6l146.4,184.1
	V264.4C199,264.4,163.1,228.5,163.1,184.4z"/>
<path class="st3" d="M163.1,184.4c0,44.1,35.9,80,80,80v-160C199,104.4,163.1,140.3,163.1,184.4z"/>
</svg>
