<?xml version="1.0" encoding="utf-8"?>
<!-- Generator: Adobe Illustrator 23.0.2, SVG Export Plug-In . SVG Version: 6.00 Build 0)  -->
<svg version="1.1" id="Слой_1" xmlns="http://www.w3.org/2000/svg" xmlns:xlink="http://www.w3.org/1999/xlink" x="0px" y="0px"
	 viewBox="0 0 304.556 472.811" style="enable-background:new 0 0 304.556 472.811;" xml:space="preserve">
<style type="text/css">
	.st0{fill:#FFFFFF;}
</style>
<g>
	<path class="st0" d="M274.622,0H29.933C13.427,0,0,13.428,0,29.934v412.944c0,16.505,13.428,29.934,29.934,29.934h244.688
		c16.506,0,29.934-13.428,29.934-29.934V29.934C304.555,13.428,291.128,0,274.622,0z M15,75.236h274.556v312.687H15V75.236z
		 M29.933,15h244.689c8.234,0,14.934,6.699,14.934,14.934v35.302H15V29.934C15,21.699,21.699,15,29.933,15z M274.622,457.811H29.933
		c-8.234,0-14.934-6.699-14.934-14.934v-44.955h274.556v44.955C289.555,451.112,282.856,457.811,274.622,457.811z"/>
	<path class="st0" d="M152.278,404.552c-13.545,0-24.564,11.02-24.564,24.565s11.02,24.564,24.564,24.564
		c13.544,0,24.564-11.02,24.564-24.564S165.823,404.552,152.278,404.552z M152.278,443.681c-8.031,0-14.564-6.534-14.564-14.564
		c0-8.031,6.533-14.565,14.564-14.565c8.031,0,14.564,6.534,14.564,14.565C166.842,437.147,160.309,443.681,152.278,443.681z"/>
	<path class="st0" d="M118.278,47.645h68c2.762,0,5-2.239,5-5s-2.238-5-5-5h-68c-2.762,0-5,2.239-5,5S115.516,47.645,118.278,47.645
		z"/>
	<path class="st0" d="M100.281,47.645c1.31,0,2.6-0.53,3.53-1.46c0.93-0.94,1.47-2.22,1.47-3.54s-0.54-2.6-1.47-3.54
		c-0.931-0.93-2.221-1.46-3.53-1.46c-1.32,0-2.601,0.53-3.54,1.46c-0.93,0.93-1.46,2.22-1.46,3.54s0.53,2.6,1.46,3.54
		C97.671,47.115,98.961,47.645,100.281,47.645z"/>
</g>
</svg>
