<?xml version="1.0" encoding="utf-8"?>
<!-- Generator: Adobe Illustrator 23.0.2, SVG Export Plug-In . SVG Version: 6.00 Build 0)  -->
<svg version="1.1" id="Layer_1" xmlns="http://www.w3.org/2000/svg" xmlns:xlink="http://www.w3.org/1999/xlink" x="0px" y="0px"
	 viewBox="0 0 512 512" style="enable-background:new 0 0 512 512;" xml:space="preserve">
<style type="text/css">
	.st0{fill:#424A60;}
	.st1{fill:#96DFEB;}
	.st2{fill:#6FD0E9;}
	.st3{fill:url(#SVGID_1_);}
</style>
<circle class="st0" cx="334.2" cy="49.5" r="16.5"/>
<path class="st1" d="M169,363.3c-20.1,15.1-33,39.1-33,66.1c0,45.6,37,82.6,82.6,82.6s82.6-37,82.6-82.6c0-27-13-51-33-66.1V49.5
	c0-27.4-22.2-49.5-49.5-49.5S169,22.2,169,49.5V363.3z"/>
<path class="st2" d="M268.1,363.3V49.5c0-27.4-22.2-49.5-49.5-49.5v512c45.6,0,82.6-37,82.6-82.6
	C301.1,402.4,288.2,378.4,268.1,363.3z"/>
<linearGradient id="SVGID_1_" gradientUnits="userSpaceOnUse" x1="218.5484" y1="33.0323" x2="218.5484" y2="478.9677">
	<stop  offset="0" style="stop-color:#2AB0A2"/>
	<stop  offset="1" style="stop-color:#2A76B0"/>
</linearGradient>
<path class="st3" d="M235.1,382.7V49.5c0-9.1-7.4-16.5-16.5-16.5c-9.1,0-16.5,7.4-16.5,16.5v333.1c-19.2,6.8-33,25.2-33,46.7
	c0,27.4,22.2,49.5,49.5,49.5s49.5-22.2,49.5-49.5C268.1,407.8,254.3,389.5,235.1,382.7z"/>
<path class="st0" d="M416.7,173.4c-22.8,0-41.3-18.5-41.3-41.3V66.1c0-22.8,18.5-41.3,41.3-41.3S458,43.3,458,66.1
	c0,4.6-3.7,8.3-8.3,8.3s-8.3-3.7-8.3-8.3c0-13.7-11.1-24.8-24.8-24.8c-13.7,0-24.8,11.1-24.8,24.8v66.1c0,13.7,11.1,24.8,24.8,24.8
	c13.7,0,24.8-11.1,24.8-24.8c0-4.6,3.7-8.3,8.3-8.3s8.3,3.7,8.3,8.3C458,154.9,439.5,173.4,416.7,173.4z"/>
</svg>
