<?xml version="1.0" encoding="utf-8"?>
<!-- Generator: Adobe Illustrator 23.0.2, SVG Export Plug-In . SVG Version: 6.00 Build 0)  -->
<svg version="1.1" id="Layer_1" xmlns="http://www.w3.org/2000/svg" xmlns:xlink="http://www.w3.org/1999/xlink" x="0px" y="0px"
	 viewBox="0 0 512 512" style="enable-background:new 0 0 512 512;" xml:space="preserve">
<style type="text/css">
	.st0{fill:#424A60;}
	.st1{fill:#707487;}
	.st2{fill:#FFA001;}
	.st3{fill:#F87F02;}
	.st4{fill:#959CB3;}
	.st5{fill:#464655;}
	.st6{fill:#F4D34E;}
</style>
<path class="st0" d="M88.3,295.7v26.5h35.3v-26.5c0-141.2,114.8-256,256-256h14.9c45.3,0,82.2,36.9,82.2,82.2
	c0,22-8.5,42.6-24.1,58.2l25,25c22.2-22.2,34.4-51.7,34.4-83.1C512,57.1,459.3,4.4,394.5,4.4h-14.9C219,4.4,88.3,135.1,88.3,295.7z"
	/>
<path class="st1" d="M487.9,193.6l-25.7-25.7c-1.4-1.4-3.6-1.7-5.3-0.7L405,196.9l53.9,53.9l29.7-51.9
	C489.6,197.2,489.3,195,487.9,193.6z"/>
<path class="st2" d="M273.7,437V198.6c0-14.6,11.9-26.5,26.5-26.5h44.1c82.9,0,150.1,67.2,150.1,150.1v150.1
	c0,14.6-11.9,26.5-26.5,26.5H335.4C301.3,498.8,273.7,471.1,273.7,437z"/>
<path class="st3" d="M432.6,498.8h35.3c14.6,0,26.5-11.9,26.5-26.5v-79.4H459v79.4C459,486.9,447.2,498.8,432.6,498.8z"/>
<path class="st4" d="M370.8,481.1v17.7h61.8c11.5,0,21.2-7.4,24.9-17.7H370.8L370.8,481.1z"/>
<path class="st5" d="M79.4,463.4v17.7h53v-17.7c0-4.9-4-8.8-8.8-8.8H88.3C83.4,454.6,79.4,458.6,79.4,463.4z"/>
<path class="st6" d="M273.7,198.6v203H309V172.1h-8.8C285.5,172.1,273.7,184,273.7,198.6z"/>
<circle class="st0" cx="344.3" cy="428.1" r="79.4"/>
<circle class="st3" cx="344.3" cy="428.1" r="53"/>
<rect x="88.3" y="313.4" class="st4" width="35.3" height="141.2"/>
<path class="st4" d="M459,313.4v79.4c0,9.8,7.9,17.7,17.7,17.7h17.7v-88.3c0-79.9-62.5-145.2-141.2-149.8v18.7
	c0,9,6.7,16.2,15.6,17.5c10.7,1.6,20.9,4.9,30.3,9.5c21.5,10.4,39,27.9,49.4,49.4C455.1,281.4,459,296.9,459,313.4z"/>
<g>
	<path class="st1" d="M141.2,481.1v17.7c0,4.9-4,8.8-8.8,8.8H8.8c-4.9,0-8.8-4-8.8-8.8l0,0c0-14.6,11.9-26.5,26.5-26.5h105.9
		C137.3,472.3,141.2,476.2,141.2,481.1z"/>
	<path class="st1" d="M432.6,498.8h35.3c11.5,0,21.2-7.4,24.9-17.7h-35.3C453.8,491.4,444.1,498.8,432.6,498.8z"/>
</g>
</svg>
